<?xml version="1.0" encoding="UTF-8"?>
<svg version="1.1" xmlns="http://www.w3.org/2000/svg" width="32" height="32">
<path d="M0 0 C10.56 0 21.12 0 32 0 C32 10.56 32 21.12 32 32 C21.44 32 10.88 32 0 32 C0 21.44 0 10.88 0 0 Z " fill="#7C11F6" transform="translate(0,0)"/>
<path d="M0 0 C10.48654781 -0.37011345 10.48654781 -0.37011345 12.875 1.3515625 C14 3 14 3 13.6875 5.5625 C13.460625 6.366875 13.23375 7.17125 13 8 C13 8.66 13 9.32 13 10 C13.66 10.66 14.32 11.32 15 12 C15.375 14.4375 15.375 14.4375 15 17 C12.72595519 19.25269228 11.41146445 19.95689967 8.203125 20.29296875 C5.46875 20.1953125 2.734375 20.09765625 0 20 C0 13.4 0 6.8 0 0 Z " fill="#E9DBFA" transform="translate(9,6)"/>
<path d="M0 0 C3.63 0 7.26 0 11 0 C9 2 9 2 5.875 2.125 C4.92625 2.08375 3.9775 2.0425 3 2 C3 4.31 3 6.62 3 9 C4.32 9.33 5.64 9.66 7 10 C5.68 10 4.36 10 3 10 C3 12.31 3 14.62 3 17 C6.96 16.505 6.96 16.505 11 16 C11 14.02 11 12.04 11 10 C12.32 10.66 13.64 11.32 15 12 C15.25 14.3125 15.25 14.3125 15 17 C12.73476214 19.26523786 11.41195331 19.95684847 8.203125 20.29296875 C5.46875 20.1953125 2.734375 20.09765625 0 20 C0 13.4 0 6.8 0 0 Z " fill="#FBF8FE" transform="translate(9,6)"/>
<path d="M0 0 C3.375 -0.125 3.375 -0.125 7 0 C7.66 0.66 8.32 1.32 9 2 C8.625 4.125 8.625 4.125 8 6 C5.36 6 2.72 6 0 6 C0 4.02 0 2.04 0 0 Z " fill="#7C24E4" transform="translate(12,17)"/>
<path d="M0 0 C1.32 0.66 2.64 1.32 4 2 C4.25 4.3125 4.25 4.3125 4 7 C1.80981386 9.14962714 0.49201421 9.94408929 -2.578125 10.29296875 C-3.45984375 10.25816406 -4.3415625 10.22335938 -5.25 10.1875 C-6.14203125 10.16042969 -7.0340625 10.13335937 -7.953125 10.10546875 C-8.62859375 10.07066406 -9.3040625 10.03585938 -10 10 C-8 7 -8 7 -6.0546875 6.48828125 C-5.33539062 6.43027344 -4.61609375 6.37226563 -3.875 6.3125 C-2.59625 6.209375 -1.3175 6.10625 0 6 C0 4.02 0 2.04 0 0 Z " fill="#EBDFFA" transform="translate(20,16)"/>
<path d="M0 0 C2.31 0 4.62 0 7 0 C7.5625 1.9375 7.5625 1.9375 8 4 C7 5 7 5 3.4375 5.0625 C2.303125 5.041875 1.16875 5.02125 0 5 C0 3.35 0 1.7 0 0 Z " fill="#8127E5" transform="translate(12,9)"/>
<path d="M0 0 C0.33 0 0.66 0 1 0 C1.30719041 3.37909451 1.34529892 5.40357459 -0.375 8.375 C-4.33670191 10.82748213 -8.44771456 10.68204973 -13 10 C-13.66 9.34 -14.32 8.68 -15 8 C-14.24074219 7.95101563 -13.48148438 7.90203125 -12.69921875 7.8515625 C-11.70535156 7.77679687 -10.71148437 7.70203125 -9.6875 7.625 C-8.70136719 7.55539063 -7.71523438 7.48578125 -6.69921875 7.4140625 C-3.78471567 7.16134528 -3.78471567 7.16134528 -1 5 C-0.27034634 2.43717258 -0.27034634 2.43717258 0 0 Z " fill="#6F13E6" transform="translate(24,18)"/>
<path d="M0 0 C2.475 0.495 2.475 0.495 5 1 C5.33 1.99 5.66 2.98 6 4 C4.02 4 2.04 4 0 4 C0 2.68 0 1.36 0 0 Z " fill="#7815EF" transform="translate(14,19)"/>
<path d="M0 0 C1.32 0 2.64 0 4 0 C4.33 1.32 4.66 2.64 5 4 C3.35 4 1.7 4 0 4 C0 2.68 0 1.36 0 0 Z " fill="#7B14EE" transform="translate(14,10)"/>
</svg>
